<?xml version="1.0" encoding="utf-8"?>
<!-- Generator: Adobe Illustrator 21.1.0, SVG Export Plug-In . SVG Version: 6.00 Build 0)  -->
<svg version="1.1" id="Layer_1" xmlns="http://www.w3.org/2000/svg" xmlns:xlink="http://www.w3.org/1999/xlink" x="0px" y="0px"
	 viewBox="0 0 610.7 24.3" style="enable-background:new 0 0 610.7 24.3;" xml:space="preserve">
<style type="text/css">
	.st0{fill:none;}
	.st1{fill:#E21D38;}
	.st2{fill:#FFFFFF;}
</style>
<title>discoverdesign_wht</title>
<g>
	<rect x="30.6" y="-26.7" class="st0" width="550.8" height="79.6"/>
	<g>
		<g>
			<path class="st1" d="M230.8,18.4c-3.4,0-6.1-2.7-6.1-6.1s2.7-6.1,6.1-6.1c3.4,0,6.1,2.7,6.1,6.1
				C236.9,15.6,234.2,18.4,230.8,18.4z"/>
			<path class="st2" d="M230.8,3.1c2.9,0,5.5,1.4,7.1,3.4l2.2-1.8c-2.2-2.8-5.5-4.6-9.3-4.6c-6.5,0-11.8,5.3-11.8,11.9
				s5.3,11.9,11.8,11.9c3.8,0,7.1-1.8,9.3-4.6l-2.2-1.8c-1.6,2.2-4.2,3.4-7.1,3.4c-4.9,0-9-4.1-9-9C221.8,7.2,225.8,3.1,230.8,3.1z
				 M174.1,0.5l-10.1,23.5h3l2-4.7h12.6l2,4.7h3L176.3,0.5C176.3,0.5,174.1,0.5,174.1,0.5z M170.1,16.3l5.1-12.1l5.1,12.1H170.1z
				 M212.8,7.7c0-4.1-3.2-7.2-7.2-7.2H194v23.5h2.8v-8.9h7.1l5.7,8.9h3.2l-5.7-9.1C210.4,14.2,212.8,11.3,212.8,7.7z M205.5,12.1
				h-8.8V3.3h8.8c2.4,0,4.4,2,4.4,4.4C210,10.2,208.1,12.1,205.5,12.1z M263.8,10.4h-13.3V0.5h-2.8v23.5h2.8V13.2h13.3v10.8h2.8V0.5
				h-2.8V10.4z M276.7,23.9h2.8V0.5h-2.8V23.9z M405.5,14.1c0,3.9-3.2,7.2-7.1,7.2s-7.1-3.2-7.1-7.2V0.5h-2.8v13.6
				c0,5.5,4.4,10,9.9,10s9.9-4.4,9.9-10V0.5h-2.8L405.5,14.1L405.5,14.1z M436.7,7.7c0-4.1-3.2-7.2-7.1-7.2H418v23.5h2.8v-8.9h7.1
				l5.6,8.9h3.2l-5.7-9.1C434.3,14.2,436.7,11.3,436.7,7.7z M429.6,12.1h-8.8V3.3h8.8c2.4,0,4.4,2,4.4,4.4
				C433.9,10.2,432,12.1,429.6,12.1z M361.8,3.3h8.4v20.7h2.8V3.3h8.4V0.5h-19.5V3.3z M448.4,21.2v-8h9.5v-2.8h-9.5V3.3h11.9V0.5
				h-14.7v23.5h15.5v-2.8C461.1,21.2,448.4,21.2,448.4,21.2z M316.8,13.2h9.4v-2.8h-9.4V3.3h12.1V0.5h-14.7v23.5h15.5v-2.8h-12.8
				V13.2z M287,3.3h8.4v20.7h2.8V3.3h8.4V0.5H287V3.3z M347.6,3.1c2.8,0,5.5,1.4,7.1,3.4l2.2-1.8c-2.2-2.8-5.5-4.6-9.3-4.6
				c-6.5,0-11.8,5.3-11.8,11.9s5.3,11.9,11.8,11.9c3.8,0,7.1-1.8,9.3-4.6l-2.2-1.8c-1.6,2.2-4.2,3.4-7.1,3.4c-4.9,0-9-4.1-9-9
				C338.6,7.2,342.7,3.1,347.6,3.1z"/>
		</g>
		<g>
			<path class="st2" d="M132.3,12c1.5,0,3,0.8,3.9,1.9l0.1,0.1l1.6-1.3l-0.1-0.1c-1.4-1.8-3.4-2.8-5.6-2.8c-3.9,0-7.1,3.2-7.1,7.2
				c0,3.9,3.2,7.1,7.1,7.1c2,0,3.9-0.8,5.2-2.3v-0.1v-5.1h-3.9V19h1.9v2c-0.9,0.8-2,1.1-3.3,1.1c-2.8,0-5.1-2.3-5.1-5.1
				C127.2,14.3,129.5,12,132.3,12z"/>
			<path class="st2" d="M101.2,12c1.5,0,3,0.8,3.9,1.9l0.1,0.1l1.6-1.3l-0.1-0.1c-1.4-1.8-3.4-2.8-5.6-2.8c-3.9,0-7.1,3.2-7.1,7.2
				c0,3.9,3.2,7.1,7.1,7.1c2.2,0,4.3-1,5.6-2.7l0.1-0.1l-1.6-1.3l-0.1,0.1c-0.9,1.3-2.4,1.9-3.9,1.9c-2.8,0-5.1-2.3-5.1-5.1
				C96.2,14.3,98.4,12,101.2,12z"/>
			<path class="st2" d="M115.1,10.1l-6.1,14h2.2l1.1-2.8h7l1.1,2.8h2.2l-6.1-14H115.1z M113.3,19.4l2.7-6.2l2.5,6.2H113.3z"/>
			<rect x="87.7" y="10.1" class="st2" width="2" height="14"/>
			<path class="st2" d="M61.3,12c1.5,0,3,0.8,3.9,1.9l0.1,0.1l1.6-1.3l-0.1-0.1c-1.4-1.8-3.4-2.8-5.6-2.8c-3.9,0-7.1,3.2-7.1,7.2
				c0,3.9,3.2,7.1,7.1,7.1c2.3,0,4.3-1,5.6-2.7l0.1-0.1l-1.6-1.3l-0.1,0.1c-1,1.3-2.4,1.9-3.9,1.9c-2.8,0-4.9-2.3-4.9-5.1
				S58.5,12,61.3,12z"/>
			<path class="st2" d="M148.3,10c-3.9,0-7.1,3.2-7.1,7.2c0,3.9,3.2,7.1,7.1,7.1s7.1-3.2,7.1-7.1C155.4,13.2,152.2,10,148.3,10z
				 M148.3,22.2c-2.8,0-5.1-2.3-5.1-5.1s2.3-5.1,5.1-5.1s5.1,2.3,5.1,5.1C153.4,20,151.1,22.2,148.3,22.2z"/>
			<polygon class="st2" points="80.3,15.8 72.9,15.8 72.9,10.1 70.9,10.1 70.9,24.2 72.9,24.2 72.9,18 80.3,18 80.3,24.2 82.3,24.2 
				82.3,10.1 80.3,10.1 			"/>
		</g>
		<g>
			<path class="st2" d="M474.1,13.5c0.5-0.5,1-0.9,1.6-1.1s1.3-0.4,1.9-0.4c0.8,0,1.5,0.1,2.3,0.5c0.6,0.4,1.3,0.8,1.8,1.4l0.1,0.1
				l1.6-1.3l-0.1-0.1c-0.6-0.9-1.4-1.5-2.4-2c-1-0.5-2-0.8-3.2-0.8c-1,0-1.9,0.3-2.8,0.6c-0.9,0.4-1.6,0.9-2.3,1.5
				c-0.6,0.6-1.1,1.4-1.5,2.3s-0.5,1.8-0.5,2.8c0,1,0.1,1.9,0.5,2.8c0.4,0.9,0.9,1.6,1.5,2.3c0.6,0.6,1.4,1.1,2.3,1.5
				c0.9,0.4,1.8,0.5,2.8,0.5c1.1,0,2.2-0.3,3.2-0.8c1-0.5,1.8-1.1,2.4-2l0.1-0.1l-1.6-1.3l-0.1,0.1c-0.5,0.6-1,1-1.8,1.4
				c-0.6,0.4-1.4,0.5-2.3,0.5c-0.6,0-1.4-0.1-1.9-0.4c-0.6-0.3-1.1-0.6-1.6-1.1s-0.8-1-1-1.6c-0.3-0.6-0.4-1.3-0.4-2
				c0-0.6,0.1-1.4,0.4-1.9C473.4,14.6,473.6,14.1,474.1,13.5z"/>
			<polygon class="st2" points="489.9,18 495.3,18 495.3,15.8 489.9,15.8 489.9,12.3 496.8,12.3 496.8,10.1 487.8,10.1 487.8,24.2 
				497.2,24.2 497.2,22 489.9,22 			"/>
			<polygon class="st2" points="512.3,20.3 503.8,10.2 503.7,10.1 502.2,10.1 502.2,24.2 504.2,24.2 504.2,14.1 512.7,24.1 
				512.8,24.2 514.3,24.2 514.3,10.1 512.3,10.1 			"/>
			<polygon class="st2" points="517.8,12.3 522.7,12.3 522.7,24.2 524.7,24.2 524.7,12.3 529.6,12.3 529.6,10.1 517.8,10.1 			"/>
			<polygon class="st2" points="535.1,18 540.6,18 540.6,15.8 535.1,15.8 535.1,12.3 542,12.3 542,10.1 533.1,10.1 533.1,24.2 
				542.5,24.2 542.5,22 535.1,22 			"/>
			<path class="st2" d="M555.4,18.9c0.4-0.1,0.8-0.3,1-0.5c0.4-0.3,0.8-0.6,1.1-1c0.3-0.4,0.5-0.8,0.8-1.3c0.1-0.5,0.3-1,0.3-1.5
				c0-0.6-0.1-1.1-0.4-1.8c-0.3-0.5-0.5-1-0.9-1.4c-0.4-0.4-0.9-0.8-1.4-0.9c-0.5-0.3-1.1-0.4-1.8-0.4h-6.9v14h2V19h3.8l3.3,5.2h2.4
				L555.4,18.9z M549.5,12.3h4.8c0.6,0,1.1,0.3,1.6,0.6c0.5,0.4,0.6,1,0.6,1.6c0,0.6-0.3,1.1-0.6,1.6c-0.5,0.5-1,0.6-1.6,0.6h-4.8
				V12.3z"/>
		</g>
	</g>
</g>
</svg>
